<?xml version="1.0" encoding="UTF-8"?>
<svg width="752pt" height="752pt" version="1.1" viewBox="0 0 752 752" xmlns="http://www.w3.org/2000/svg">
 <path d="m359.64 267.21c-44.027 0-79.641 35.551-79.641 79.305 0 43.758 35.613 79.309 79.641 79.309 22.012 0 41.91-8.875 56.332-23.246 14.422-14.367 23.312-34.172 23.312-56.062 0-43.754-35.613-79.305-79.645-79.305zm-105.24 79.305c0-57.98 47.16-104.91 105.24-104.91 58.082 0 105.24 46.926 105.24 104.91 0 24.355-8.3359 46.781-22.297 64.578l61.195 60.973c5.0078 4.9922 5.0234 13.094 0.035156 18.102-4.9922 5.0078-13.094 5.0234-18.102 0.035157l-61.254-61.035c-17.867 13.941-40.379 22.254-64.82 22.254-58.078 0-105.24-46.922-105.24-104.91z" fill-rule="evenodd"/>
</svg>
